<svg width="36" height="36" viewBox="0 0 36 36" fill="none" xmlns="http://www.w3.org/2000/svg">
<path d="M25.875 4.78125H10.125C9.60286 4.78125 9.1021 4.98867 8.73288 5.35788C8.36367 5.7271 8.15625 6.22785 8.15625 6.75V31.5C8.1562 31.6506 8.19648 31.7985 8.2729 31.9284C8.34933 32.0582 8.45911 32.1651 8.59085 32.2382C8.72259 32.3112 8.87149 32.3477 9.02208 32.3437C9.17266 32.3398 9.31945 32.2956 9.44719 32.2158L17.9986 26.872L26.5528 32.2158C26.6806 32.2956 26.8273 32.3398 26.9779 32.3437C27.1285 32.3477 27.2774 32.3112 27.4091 32.2382C27.5409 32.1651 27.6507 32.0582 27.7271 31.9284C27.8035 31.7985 27.8438 31.6506 27.8438 31.5V6.75C27.8438 6.22785 27.6363 5.7271 27.2671 5.35788C26.8979 4.98867 26.3971 4.78125 25.875 4.78125ZM26.1562 29.977L18.4458 25.1592C18.3117 25.0754 18.1567 25.031 17.9986 25.031C17.8405 25.031 17.6855 25.0754 17.5514 25.1592L9.84375 29.977V6.75C9.84375 6.67541 9.87338 6.60387 9.92613 6.55113C9.97887 6.49838 10.0504 6.46875 10.125 6.46875H25.875C25.9496 6.46875 26.0211 6.49838 26.0739 6.55113C26.1266 6.60387 26.1562 6.67541 26.1562 6.75V29.977Z" fill="black"/>
</svg>
