<svg width="36" height="36" viewBox="0 0 36 36" fill="none" xmlns="http://www.w3.org/2000/svg">
<path d="M25.5825 21.5156C25.3011 23.0878 24.5449 24.5361 23.4155 25.6655C22.2861 26.7948 20.8378 27.5511 19.2656 27.8325C19.2191 27.8396 19.1721 27.8433 19.125 27.8437C18.9129 27.8446 18.7082 27.7655 18.5518 27.6222C18.3953 27.4789 18.2986 27.2819 18.2809 27.0705C18.2631 26.8591 18.3257 26.6488 18.4561 26.4814C18.5864 26.3141 18.7751 26.202 18.9844 26.1675C21.4284 25.7568 23.5027 23.6812 23.9175 21.2343C23.9548 21.0135 24.0783 20.8166 24.2608 20.6869C24.3511 20.6226 24.4533 20.5768 24.5613 20.552C24.6694 20.5272 24.7813 20.524 24.8906 20.5425C25 20.5609 25.1046 20.6008 25.1985 20.6597C25.2924 20.7186 25.3739 20.7954 25.4381 20.8857C25.5023 20.9761 25.5482 21.0782 25.5729 21.1863C25.5977 21.2944 25.601 21.4063 25.5825 21.5156ZM30.0938 20.25C30.0938 23.4574 28.8196 26.5335 26.5516 28.8015C24.2836 31.0696 21.2075 32.3437 18 32.3437C14.7925 32.3437 11.7164 31.0696 9.44843 28.8015C7.18041 26.5335 5.90625 23.4574 5.90625 20.25C5.90625 16.387 7.43203 12.4298 10.4414 8.48809C10.5137 8.3921 10.6056 8.31264 10.7111 8.25505C10.8165 8.19745 10.933 8.16304 11.0529 8.15412C11.1727 8.1452 11.293 8.16198 11.4058 8.20332C11.5187 8.24467 11.6214 8.30964 11.707 8.39387L15.4111 11.9882L18.6581 3.08528C18.7045 2.95824 18.7807 2.84419 18.8803 2.75275C18.9799 2.66132 19.1001 2.59517 19.2306 2.55988C19.3612 2.52459 19.4983 2.52119 19.6304 2.54998C19.7625 2.57876 19.8858 2.63889 19.9898 2.72528C23.0231 5.2495 30.0938 12.0093 30.0938 20.25ZM28.4062 20.25C28.4062 13.4437 22.9711 7.61622 19.8183 4.80934L16.5431 13.7897C16.4949 13.922 16.4144 14.0402 16.3088 14.1334C16.2032 14.2267 16.076 14.292 15.9387 14.3235C15.8014 14.3549 15.6584 14.3515 15.5228 14.3135C15.3872 14.2756 15.2632 14.2042 15.1622 14.1061L11.2247 10.2782C8.81297 13.6589 7.59375 17.0156 7.59375 20.25C7.59375 23.0099 8.69012 25.6567 10.6417 27.6083C12.5932 29.5598 15.2401 30.6562 18 30.6562C20.7599 30.6562 23.4068 29.5598 25.3583 27.6083C27.3099 25.6567 28.4062 23.0099 28.4062 20.25Z" fill="black"/>
</svg>
