<svg width="36" height="36" viewBox="0 0 36 36" fill="none" xmlns="http://www.w3.org/2000/svg">
<path d="M31.2188 18C31.2188 18.2238 31.1299 18.4384 30.9716 18.5966C30.8134 18.7549 30.5988 18.8438 30.375 18.8438H5.625C5.40122 18.8438 5.18661 18.7549 5.02838 18.5966C4.87014 18.4384 4.78125 18.2238 4.78125 18C4.78125 17.7762 4.87014 17.5616 5.02838 17.4034C5.18661 17.2451 5.40122 17.1562 5.625 17.1562H30.375C30.5988 17.1562 30.8134 17.2451 30.9716 17.4034C31.1299 17.5616 31.2188 17.7762 31.2188 18ZM5.625 9.84375H30.375C30.5988 9.84375 30.8134 9.75485 30.9716 9.59662C31.1299 9.43839 31.2188 9.22378 31.2188 9C31.2188 8.77622 31.1299 8.56161 30.9716 8.40338C30.8134 8.24514 30.5988 8.15625 30.375 8.15625H5.625C5.40122 8.15625 5.18661 8.24514 5.02838 8.40338C4.87014 8.56161 4.78125 8.77622 4.78125 9C4.78125 9.22378 4.87014 9.43839 5.02838 9.59662C5.18661 9.75485 5.40122 9.84375 5.625 9.84375ZM30.375 26.1562H5.625C5.40122 26.1562 5.18661 26.2451 5.02838 26.4034C4.87014 26.5616 4.78125 26.7762 4.78125 27C4.78125 27.2238 4.87014 27.4384 5.02838 27.5966C5.18661 27.7549 5.40122 27.8438 5.625 27.8438H30.375C30.5988 27.8438 30.8134 27.7549 30.9716 27.5966C31.1299 27.4384 31.2188 27.2238 31.2188 27C31.2188 26.7762 31.1299 26.5616 30.9716 26.4034C30.8134 26.2451 30.5988 26.1562 30.375 26.1562Z" fill="black"/>
</svg>
