<svg width="36" height="36" viewBox="0 0 36 36" fill="none" xmlns="http://www.w3.org/2000/svg">
<path d="M29.25 11.5312H24.4688V7.875C24.4687 6.15938 23.7872 4.51403 22.5741 3.3009C21.361 2.08778 19.7156 1.40625 18 1.40625C16.2844 1.40625 14.639 2.08778 13.4259 3.3009C12.2128 4.51403 11.5313 6.15938 11.5312 7.875V11.5312H6.75C6.22786 11.5312 5.7271 11.7387 5.35788 12.1079C4.98867 12.4771 4.78125 12.9779 4.78125 13.5V29.25C4.78125 29.7721 4.98867 30.2729 5.35788 30.6421C5.7271 31.0113 6.22786 31.2188 6.75 31.2188H29.25C29.7721 31.2188 30.2729 31.0113 30.6421 30.6421C31.0113 30.2729 31.2188 29.7721 31.2188 29.25V13.5C31.2188 12.9779 31.0113 12.4771 30.6421 12.1079C30.2729 11.7387 29.7721 11.5312 29.25 11.5312ZM13.2188 7.875C13.2188 6.60693 13.7225 5.3908 14.6191 4.49415C15.5158 3.59749 16.7319 3.09375 18 3.09375C19.2681 3.09375 20.4842 3.59749 21.3809 4.49415C22.2775 5.3908 22.7812 6.60693 22.7812 7.875V11.5312H13.2188V7.875ZM29.5312 29.25C29.5312 29.3246 29.5016 29.3961 29.4489 29.4489C29.3961 29.5016 29.3246 29.5312 29.25 29.5312H6.75C6.67541 29.5312 6.60387 29.5016 6.55113 29.4489C6.49838 29.3961 6.46875 29.3246 6.46875 29.25V13.5C6.46875 13.4254 6.49838 13.3539 6.55113 13.3011C6.60387 13.2484 6.67541 13.2188 6.75 13.2188H29.25C29.3246 13.2188 29.3961 13.2484 29.4489 13.3011C29.5016 13.3539 29.5312 13.4254 29.5312 13.5V29.25Z" fill="black"/>
</svg>
