<svg width="48" height="48" viewBox="0 0 48 48" fill="none" xmlns="http://www.w3.org/2000/svg">
<path d="M34.5 6.375H13.5C12.8038 6.375 12.1361 6.65156 11.6438 7.14384C11.1516 7.63613 10.875 8.30381 10.875 9V42C10.8749 42.2008 10.9286 42.3981 11.0305 42.5711C11.1324 42.7442 11.2788 42.8869 11.4545 42.9843C11.6301 43.0817 11.8287 43.1302 12.0294 43.125C12.2302 43.1197 12.4259 43.0608 12.5963 42.9544L23.9981 35.8294L35.4038 42.9544C35.5741 43.0608 35.7698 43.1197 35.9706 43.125C36.1713 43.1302 36.3699 43.0817 36.5455 42.9843C36.7212 42.8869 36.8676 42.7442 36.9695 42.5711C37.0714 42.3981 37.1251 42.2008 37.125 42V9C37.125 8.30381 36.8484 7.63613 36.3562 7.14384C35.8639 6.65156 35.1962 6.375 34.5 6.375ZM34.875 39.9694L24.5944 33.5456C24.4156 33.4339 24.209 33.3746 23.9981 33.3746C23.7873 33.3746 23.5807 33.4339 23.4019 33.5456L13.125 39.9694V9C13.125 8.90054 13.1645 8.80516 13.2348 8.73483C13.3052 8.66451 13.4005 8.625 13.5 8.625H34.5C34.5995 8.625 34.6948 8.66451 34.7652 8.73483C34.8355 8.80516 34.875 8.90054 34.875 9V39.9694Z" fill="#484848"/>
</svg>
