<svg width="48" height="48" viewBox="0 0 48 48" fill="none" xmlns="http://www.w3.org/2000/svg">
<path d="M34.5 6H13.5C12.7044 6 11.9413 6.31607 11.3787 6.87868C10.8161 7.44129 10.5 8.20435 10.5 9V42C10.5001 42.2677 10.5719 42.5305 10.7079 42.7611C10.8438 42.9917 11.039 43.1817 11.2732 43.3114C11.5073 43.4411 11.772 43.5058 12.0396 43.4987C12.3072 43.4917 12.568 43.4131 12.795 43.2712L24 36.2681L35.2069 43.2712C35.4338 43.4126 35.6945 43.4908 35.9618 43.4976C36.2291 43.5044 36.4934 43.4396 36.7273 43.31C36.9612 43.1803 37.1561 42.9905 37.292 42.7602C37.4278 42.5299 37.4997 42.2674 37.5 42V9C37.5 8.20435 37.1839 7.44129 36.6213 6.87868C36.0587 6.31607 35.2956 6 34.5 6Z" fill="#484848"/>
</svg>
