<svg width="36" height="36" viewBox="0 0 36 36" fill="none" xmlns="http://www.w3.org/2000/svg">
<path d="M22.8712 3.74202C22.7294 3.67254 22.5709 3.64427 22.4138 3.66043C22.2567 3.67659 22.1072 3.73653 21.9825 3.83342L12.0853 11.5312H5.625C5.10286 11.5312 4.6021 11.7387 4.23288 12.1079C3.86367 12.4771 3.65625 12.9778 3.65625 13.5V22.5C3.65625 23.0221 3.86367 23.5229 4.23288 23.8921C4.6021 24.2613 5.10286 24.4687 5.625 24.4687H12.0853L21.9825 32.1666C22.1072 32.2634 22.2566 32.3233 22.4137 32.3395C22.5708 32.3556 22.7292 32.3274 22.8711 32.2579C23.0129 32.1885 23.1324 32.0806 23.2159 31.9466C23.2995 31.8126 23.3438 31.6579 23.3438 31.5V4.49999C23.3438 4.34209 23.2995 4.18735 23.216 4.05335C23.1325 3.91936 23.013 3.81149 22.8712 3.74202ZM21.6562 29.7745L12.8925 22.9584C12.7445 22.8435 12.5624 22.7812 12.375 22.7812H5.625C5.55041 22.7812 5.47887 22.7516 5.42613 22.6989C5.37338 22.6461 5.34375 22.5746 5.34375 22.5V13.5C5.34375 13.4254 5.37338 13.3539 5.42613 13.3011C5.47887 13.2484 5.55041 13.2187 5.625 13.2187H12.375C12.5624 13.2188 12.7445 13.1564 12.8925 13.0416L21.6562 6.22546V29.7745ZM28.9688 14.625V21.375C28.9687 21.5988 28.8799 21.8134 28.7216 21.9716C28.5634 22.1298 28.3488 22.2187 28.125 22.2187C27.9012 22.2187 27.6866 22.1298 27.5284 21.9716C27.3701 21.8134 27.2812 21.5988 27.2812 21.375V14.625C27.2812 14.4012 27.3701 14.1866 27.5284 14.0284C27.6866 13.8701 27.9012 13.7812 28.125 13.7812C28.3488 13.7812 28.5634 13.8701 28.7216 14.0284C28.8799 14.1866 28.9688 14.4012 28.9688 14.625ZM33.4688 12.375V23.625C33.4688 23.8488 33.3799 24.0634 33.2216 24.2216C33.0634 24.3798 32.8488 24.4687 32.625 24.4687C32.4012 24.4687 32.1866 24.3798 32.0284 24.2216C31.8701 24.0634 31.7812 23.8488 31.7812 23.625V12.375C31.7812 12.1512 31.8701 11.9366 32.0284 11.7784C32.1866 11.6201 32.4012 11.5312 32.625 11.5312C32.8488 11.5312 33.0634 11.6201 33.2216 11.7784C33.3799 11.9366 33.4688 12.1512 33.4688 12.375Z" fill="black"/>
</svg>
